<?xml version="1.0" encoding="UTF-8"?>
<svg width="42px" height="42px" viewBox="0 0 42 42" version="1.1" xmlns="http://www.w3.org/2000/svg" xmlns:xlink="http://www.w3.org/1999/xlink">
    <!-- Generator: Sketch 52.4 (67378) - http://www.bohemiancoding.com/sketch -->
    <title>Oval</title>
    <desc>Created with Sketch.</desc>
    <g id="Page-1" stroke="none" stroke-width="1" fill="none" fill-rule="evenodd">
        <g id="Sigesov-ANG-Login-002" transform="translate(-1165.000000, -843.000000)">
            <g id="Footer/desktop/Home-Mi-entel" transform="translate(0.000000, 826.000000)">
                <g id="Oval" transform="translate(1165.000000, 17.000000)">
                    <circle fill-opacity="0.43" fill="#D8D8D8" fill-rule="evenodd" cx="21" cy="21" r="21"></circle>
                    <path d="M22.3193203,16.8639607 L22.3193203,14.7960303 C22.3193203,14.4855933 22.3333668,14.2451399 22.3619112,14.075282 C22.3903554,13.9051691 22.4550695,13.7378616 22.5555018,13.5726965 C22.6557837,13.4076334 22.818171,13.2936807 23.0424131,13.2305323 C23.2669561,13.167282 23.5653435,13.1357588 23.9378762,13.1357588 L25.9715559,13.1357588 L25.9715559,9 L22.7203473,9 C20.8391222,9 19.4880012,9.45382148 18.6667837,10.3614645 C17.8456666,11.2693115 17.4351582,12.6065469 17.4351582,14.373681 L17.4351582,16.8639097 L15,16.8639097 L15,20.9999745 L17.4350077,20.9999745 L17.4350077,33 L22.3192701,33 L22.3192701,21.0000255 L25.570278,21.0000255 L26,16.8639607 L22.3193203,16.8639607 Z" id="Shape" fill="#FFFFFF" fill-rule="nonzero"></path>
                </g>
            </g>
        </g>
    </g>
</svg>