<?xml version="1.0" encoding="UTF-8"?>
<svg width="42px" height="42px" viewBox="0 0 42 42" version="1.1" xmlns="http://www.w3.org/2000/svg" xmlns:xlink="http://www.w3.org/1999/xlink">
    <!-- Generator: Sketch 52.4 (67378) - http://www.bohemiancoding.com/sketch -->
    <title>Oval Copy</title>
    <desc>Created with Sketch.</desc>
    <g id="Page-1" stroke="none" stroke-width="1" fill="none" fill-rule="evenodd">
        <g id="Oval-Copy">
            <circle fill-opacity="0.43" fill="#D8D8D8" fill-rule="evenodd" cx="21" cy="21" r="21"></circle>
            <path d="M21,10.34325 C24.471,10.34325 24.8826667,10.35625 26.2541667,10.4190833 C29.7771667,10.5794167 31.42275,12.251 31.5830833,15.748 C31.6459167,17.1184167 31.6578333,17.5300833 31.6578333,21.0010833 C31.6578333,24.4731667 31.6448333,24.88375 31.5830833,26.2541667 C31.4216667,29.7479167 29.7804167,31.42275 26.2541667,31.5830833 C24.8826667,31.6459167 24.4731667,31.6589167 21,31.6589167 C17.529,31.6589167 17.1173333,31.6459167 15.7469167,31.5830833 C12.21525,31.4216667 10.5783333,29.7425 10.418,26.2530833 C10.3551667,24.8826667 10.3421667,24.4720833 10.3421667,21 C10.3421667,17.529 10.35625,17.1184167 10.418,15.7469167 C10.5794167,12.251 12.2206667,10.5783333 15.7469167,10.418 C17.1184167,10.35625 17.529,10.34325 21,10.34325 Z M21,8 C17.4694167,8 17.0274167,8.01516667 15.64075,8.078 C10.9195833,8.29466667 8.29575,10.9141667 8.07908333,15.6396667 C8.01516667,17.0274167 8,17.4694167 8,21 C8,24.5305833 8.01516667,24.9736667 8.078,26.3603333 C8.29466667,31.0815 10.9141667,33.7053333 15.6396667,33.922 C17.0274167,33.9848333 17.4694167,34 21,34 C24.5305833,34 24.9736667,33.9848333 26.3603333,33.922 C31.0771667,33.7053333 33.7075,31.0858333 33.9209167,26.3603333 C33.9848333,24.9736667 34,24.5305833 34,21 C34,17.4694167 33.9848333,17.0274167 33.922,15.64075 C33.7096667,10.9239167 31.0869167,8.29575 26.3614167,8.07908333 C24.9736667,8.01516667 24.5305833,8 21,8 Z M21,14.3245 C17.3134167,14.3245 14.3245,17.3134167 14.3245,21 C14.3245,24.6865833 17.3134167,27.6765833 21,27.6765833 C24.6865833,27.6765833 27.6755,24.6876667 27.6755,21 C27.6755,17.3134167 24.6865833,14.3245 21,14.3245 Z M21,25.3333333 C18.6069167,25.3333333 16.6666667,23.3941667 16.6666667,21 C16.6666667,18.6069167 18.6069167,16.6666667 21,16.6666667 C23.3930833,16.6666667 25.3333333,18.6069167 25.3333333,21 C25.3333333,23.3941667 23.3930833,25.3333333 21,25.3333333 Z M27.9398333,12.50125 C27.0775,12.50125 26.37875,13.2 26.37875,14.06125 C26.37875,14.9225 27.0775,15.62125 27.9398333,15.62125 C28.8010833,15.62125 29.49875,14.9225 29.49875,14.06125 C29.49875,13.2 28.8010833,12.50125 27.9398333,12.50125 Z" id="Shape" fill="#FFFFFF" fill-rule="nonzero"></path>
        </g>
    </g>
</svg>