<?xml version="1.0" encoding="UTF-8"?>
<svg width="42px" height="42px" viewBox="0 0 42 42" version="1.1" xmlns="http://www.w3.org/2000/svg" xmlns:xlink="http://www.w3.org/1999/xlink">
    <!-- Generator: Sketch 52.4 (67378) - http://www.bohemiancoding.com/sketch -->
    <title>Group 3</title>
    <desc>Created with Sketch.</desc>
    <g id="Page-1" stroke="none" stroke-width="1" fill="none" fill-rule="evenodd">
        <g id="Group-3">
            <circle id="Oval-Copy-2" fill-opacity="0.43" fill="#D8D8D8" cx="21" cy="21" r="21"></circle>
            <g id="Group-2" transform="translate(9.000000, 9.000000)">
                <rect id="Rectangle" fill="#E24573" x="0" y="0" width="25" height="25" rx="1.5503876"></rect>
                <g id="Group" transform="translate(3.294574, 3.294574)" fill="#FFFFFF">
                    <path d="M1.63156732,0.09202396 C2.95521073,-0.334332629 4.41838903,0.783884425 4.46296267,2.14628753 C4.56373787,3.40210148 3.39319523,4.55326427 2.14319523,4.46993094 C0.891257245,4.45442706 -0.178510197,3.20830303 0.0249781753,1.96605497 C0.131567323,1.09783791 0.79435802,0.336210007 1.63156732,0.09202396 Z" id="Path"></path>
                    <path d="M9.90676112,7.5493883 C10.676141,6.67148132 11.6393193,5.8749697 12.8331177,5.70636505 C14.2207146,5.51644256 15.8641255,5.70442706 16.8311797,6.83039605 C17.7110247,7.89241156 17.8195518,9.34589993 17.8408696,10.6676054 C17.8311797,13.0552023 17.8486216,15.4447371 17.8311797,17.832334 C16.6063735,17.8517139 15.3835053,17.8517139 14.1606371,17.832334 C14.1354433,15.7005511 14.174203,13.5668302 14.1490092,11.4350472 C14.1083115,10.6734193 14.1276914,9.74512474 13.4571487,9.23349683 C12.7575363,8.75093869 11.7420324,8.83621001 11.0676138,9.3245821 C10.3079239,9.90210148 10.1548231,10.9234193 10.1141255,11.8168302 C10.0385441,13.8207061 10.1160634,15.8284581 10.0792417,17.832334 C8.85443554,17.8517139 7.63156732,17.8517139 6.40869911,17.832334 C6.3970712,13.8982255 6.39900918,9.962179 6.40869911,6.02807047 C7.56567585,6.00481466 8.72265259,6.00675264 9.87769135,6.02613249 C9.87962934,6.53388443 9.89513321,7.04163636 9.90676112,7.5493883 Z" id="Path"></path>
                    <path d="M0.400947168,6.02613249 C1.62381538,6.00675264 2.84862159,6.00675264 4.0714898,6.02613249 C4.08311771,9.962179 4.08117973,13.8962875 4.0714898,17.832334 C2.84862159,17.8517139 1.62381538,17.8517139 0.400947168,17.832334 C0.391257245,13.8962875 0.389319261,9.962179 0.400947168,6.02613249 Z" id="Path"></path>
                </g>
            </g>
        </g>
    </g>
</svg>