<?xml version="1.0" encoding="UTF-8"?>
<svg width="98px" height="28px" viewBox="0 0 98 28" version="1.1" xmlns="http://www.w3.org/2000/svg" xmlns:xlink="http://www.w3.org/1999/xlink">
    <!-- Generator: Sketch 52.4 (67378) - http://www.bohemiancoding.com/sketch -->
    <title>Group 3</title>
    <desc>Created with Sketch.</desc>
    <g id="Page-1" stroke="none" stroke-width="1" fill="none" fill-rule="evenodd">
        <g id="Sigesov-ANG-Login-002" transform="translate(-894.000000, -571.000000)">
            <g id="Group" transform="translate(266.000000, 150.000000)">
                <g id="Group-3" transform="translate(628.000000, 421.000000)">
                    <path d="M0.0531249791,14.7304688 L4.15468748,14.7304688 C4.31093826,15.9023496 4.76015252,16.7226539 5.50234373,17.1914062 C6.28359764,17.738284 7.35780564,18.0117188 8.72499998,18.0117188 C9.93594353,18.0117188 10.8539031,17.7968771 11.4789062,17.3671875 C12.1039094,16.9374979 12.4164062,16.3125041 12.4164062,15.4921875 C12.4164062,14.2421812 10.6586113,13.2265664 7.14296873,12.4453125 L7.02578123,12.3867188 L6.55703123,12.2695313 C4.56483377,11.8398416 3.23672205,11.3906273 2.57265623,10.921875 C1.79140232,10.4921854 1.24453279,9.8671916 0.932031229,9.046875 C0.541404276,8.34374648 0.346093729,7.44531797 0.346093729,6.3515625 C0.346093729,4.43749043 1.01014959,2.93359922 2.33828123,1.83984375 C3.66641287,0.785150977 5.59998728,0.2578125 8.13906248,0.2578125 C10.5218869,0.2578125 12.357806,0.804682031 13.646875,1.8984375 C14.9750066,3.10938105 15.6781246,4.69139648 15.75625,6.64453125 L13.4125,6.64453125 C12.514058,6.64453125 11.8695332,6.2343791 11.4789062,5.4140625 C11.2835928,5.02343555 11.010158,4.69140762 10.6585937,4.41796875 C9.95546521,3.91015371 8.99844353,3.65625 7.78749998,3.65625 C6.61561912,3.65625 5.77578377,3.8710916 5.26796873,4.30078125 C4.6820283,4.7304709 4.38906248,5.33593359 4.38906248,6.1171875 C4.38906248,7.17188027 5.52186365,7.95312246 7.78749998,8.4609375 C8.4515658,8.65625098 8.93984217,8.7734373 9.25234373,8.8125 C9.95547224,9.04687617 10.5707005,9.23242119 11.0980469,9.36914062 C11.6253932,9.50586006 12.0453109,9.61328086 12.3578125,9.69140625 L13.9984375,10.3945312 C14.7796914,10.8632836 15.3851541,11.4687463 15.8148437,12.2109375 C16.2445334,13.0312541 16.459375,13.9296826 16.459375,14.90625 C16.459375,17.0156355 15.756257,18.6562441 14.35,19.828125 C12.9437429,20.9218805 10.9515754,21.46875 8.37343748,21.46875 C5.7171742,21.46875 3.72500662,20.9023494 2.39687498,19.7695312 C0.951555253,18.6367131 0.170313065,16.9570424 0.0531249791,14.7304688 Z M18.03125,5.4140625 L20.140625,5.4140625 C20.6875027,5.4140625 21.156248,5.60937305 21.546875,6 C21.9375019,6.39062695 22.1328125,6.85937227 22.1328125,7.40625 L22.1328125,21 L18.03125,21 L18.03125,5.4140625 Z M18.03125,0.84375 L20.140625,0.84375 C20.6875027,0.84375 21.156248,1.03906055 21.546875,1.4296875 C21.9375019,1.82031445 22.1328125,2.28905977 22.1328125,2.8359375 L22.1328125,4.06640625 L18.03125,4.06640625 L18.03125,0.84375 Z M33.0210937,20.0625 L33.0210937,19.0664062 C32.3179652,20.1601617 31.3707091,20.8437486 30.1792969,21.1171875 C28.9878847,21.3906264 27.8062559,21.2929711 26.634375,20.8242188 C25.4624941,20.3554664 24.4566448,19.4863345 23.6167969,18.2167969 C22.7769489,16.9472593 22.3570312,15.2773541 22.3570312,13.2070312 C22.3570312,10.7851441 22.9136663,8.82227314 24.0269531,7.31835938 C25.1402399,5.81444561 26.9273314,5.0625 29.3882812,5.0625 C31.2632906,5.0625 33.0015545,5.57030742 34.603125,6.5859375 C36.2046955,7.60156758 37.0054687,9.47654883 37.0054687,12.2109375 L37.0054687,20.4726562 C37.0054687,23.2070449 36.2046955,25.0722606 34.603125,26.0683594 C33.0015545,27.0644581 31.2632906,27.5625 29.3882812,27.5625 C25.7945133,27.5625 23.567973,25.8828293 22.7085937,22.5234375 L26.9859375,22.5234375 C27.2984391,23.0703152 27.7769499,23.4902329 28.4214844,23.7832031 C29.0660188,24.0761733 29.7105436,24.1542976 30.3550781,24.0175781 C30.9996126,23.8808587 31.5855442,23.5000031 32.1128906,22.875 C32.640237,22.2499969 32.9429684,21.3125063 33.0210937,20.0625 Z M26.3414062,13.3242188 C26.3414062,16.0195447 27.1226484,17.5136704 28.6851562,17.8066406 C30.2476641,18.0996108 31.3999963,17.7382863 32.1421875,16.7226562 C32.4937517,16.2929666 32.7476555,15.6191452 32.9039062,14.7011719 C33.060157,13.7831985 33.0699225,12.8750045 32.9332031,11.9765625 C32.7964837,11.0781205 32.4742213,10.2773473 31.9664062,9.57421875 C31.4585912,8.87109023 30.7164111,8.51953125 29.7398437,8.51953125 C28.4117121,8.51953125 27.5132836,9.00780762 27.0445312,9.984375 C26.5757789,10.9609424 26.3414062,12.0742125 26.3414062,13.3242188 Z M48.9484375,16.1953125 L51.878125,16.1953125 C51.4484353,17.8359457 50.6281311,19.0859332 49.4171875,19.9453125 C48.2062439,20.8437545 46.6828217,21.2929688 44.846875,21.2929688 C42.6203014,21.2929688 40.8820375,20.5703197 39.6320312,19.125 C38.382025,17.718743 37.7570312,15.7070443 37.7570312,13.0898438 C37.7570312,10.5898312 38.3624939,8.63672578 39.5734375,7.23046875 C40.8234437,5.78514902 42.5617076,5.0625 44.7882812,5.0625 C47.132043,5.0625 48.9484311,5.76561797 50.2375,7.171875 C51.4875062,8.61719473 52.1125,10.6288934 52.1125,13.2070312 L52.1125,13.8515625 C52.1125,14.046876 52.0929689,14.1835934 52.0539062,14.2617188 L41.9171875,14.2617188 C41.9562502,15.4726623 42.249216,16.3710908 42.7960937,16.9570312 C43.3039088,17.5820344 44.0656199,17.8945312 45.08125,17.8945312 C45.7453158,17.8945312 46.3117164,17.7578139 46.7804687,17.484375 C46.8976568,17.4453123 47.0050776,17.3769536 47.1027344,17.2792969 L47.425,16.9570312 C47.4640627,16.8398432 47.6105456,16.6835947 47.8644531,16.4882812 C48.1183606,16.2929678 48.4796852,16.1953125 48.9484375,16.1953125 Z M41.9171875,11.625 L47.89375,11.625 C47.8156246,10.5703072 47.5421898,9.78906504 47.0734375,9.28125 C46.5656225,8.73437227 45.8429734,8.4609375 44.9054687,8.4609375 C44.0460895,8.4609375 43.3429715,8.73437227 42.7960937,9.28125 C42.249216,9.82812773 41.9562502,10.6093699 41.9171875,11.625 Z" id="Sigesov" fill="#E24573"></path>
                    <path d="M52.8054688,15.84375 L56.7898438,15.84375 C56.8289064,16.6250039 57.1218723,17.2109355 57.66875,17.6015625 C58.2546904,17.9921895 59.0359326,18.1875 60.0125,18.1875 C60.7156285,18.1875 61.3210912,18.0507826 61.8289063,17.7773438 C62.2976586,17.5039049 62.5320313,17.1328148 62.5320313,16.6640625 C62.5320313,15.960934 61.711727,15.4335955 60.0710938,15.0820312 C59.3679652,14.9648432 58.8406268,14.8476568 58.4890625,14.7304688 C56.4187397,14.2226537 55.0320348,13.617191 54.3289063,12.9140625 C53.5476523,12.210934 53.1570313,11.2734434 53.1570313,10.1015625 C53.1570313,8.61718008 53.7234318,7.38672363 54.85625,6.41015625 C56.0281309,5.51171426 57.5515531,5.0625 59.4265625,5.0625 C61.4578227,5.0625 63.0789002,5.51171426 64.2898438,6.41015625 C65.4226619,7.38672363 66.0281246,8.65624219 66.10625,10.21875 L63.5867188,10.21875 C62.8445275,10.21875 62.278127,9.88672207 61.8875,9.22265625 L61.41875,8.75390625 C60.9499977,8.40234199 60.3054729,8.2265625 59.4851563,8.2265625 C58.7039023,8.2265625 58.1179707,8.34374883 57.7273438,8.578125 C57.3757795,8.81250117 57.2,9.16406016 57.2,9.6328125 C57.2,10.2578156 58.2156148,10.7851541 60.246875,11.2148438 C60.4812512,11.2929691 60.6863272,11.3515623 60.8621094,11.390625 C61.0378915,11.4296877 61.2039055,11.4492188 61.3601563,11.4492188 C63.3523537,11.9570338 64.7390586,12.5429654 65.5203125,13.2070312 C66.2625037,13.9101598 66.6335938,14.8476504 66.6335938,16.0195312 C66.6335938,17.7382898 66.0086,19.0664016 64.7585938,20.0039062 C63.5867129,20.8632855 61.828918,21.2929688 59.4851563,21.2929688 C57.2585826,21.2929688 55.598443,20.8437545 54.5046875,19.9453125 C53.3718693,19.0468705 52.8054688,17.7382898 52.8054688,16.0195312 L52.8054688,15.84375 Z M69.6117188,19.59375 C68.7914022,18.8906215 68.2054705,17.9433653 67.8539063,16.7519531 C67.502342,15.5605409 67.3265625,14.3203189 67.3265625,13.03125 C67.3265625,11.9765572 67.4730454,10.9218803 67.7660156,9.8671875 C68.0589858,8.81249473 68.5179656,7.93359727 69.1429688,7.23046875 C70.1585988,6.05858789 71.4671795,5.36523545 73.06875,5.15039063 C74.6703205,4.9355458 76.1156186,5.06249766 77.4046875,5.53125 C78.8890699,6.11719043 79.982809,7.13280527 80.6859375,8.578125 C81.3500033,9.86719395 81.6820313,11.3710852 81.6820313,13.0898438 C81.6820313,14.33985 81.5453139,15.414058 81.271875,16.3125 C80.9984361,17.210942 80.6468772,17.9726531 80.2171875,18.5976563 C79.2796828,19.8867252 78.0882885,20.6874984 76.6429688,21 C75.3538998,21.3515643 74.0550847,21.3808608 72.7464844,21.0878906 C71.4378841,20.7949204 70.3929727,20.2968785 69.6117188,19.59375 Z M72.4242188,9.28125 C71.6039022,10.179692 71.2328121,11.5175692 71.3109375,13.2949219 C71.3890629,15.0722745 71.7210908,16.3124965 72.3070313,17.015625 C72.5414074,17.3281266 72.9515596,17.5917958 73.5375,17.8066406 C74.1234404,18.0214854 74.7191376,18.0410165 75.3246094,17.8652344 C75.9300812,17.6894522 76.4671852,17.2500035 76.9359375,16.546875 C77.4046899,15.8437465 77.6585936,14.7109453 77.6976563,13.1484375 C77.6976563,11.7421805 77.4730491,10.6875035 77.0238281,9.984375 C76.5746071,9.28124648 76.0570342,8.83203223 75.4710938,8.63671875 C74.8851533,8.44140527 74.2992217,8.43163975 73.7132813,8.60742187 C73.1273408,8.783204 72.6976576,9.00781113 72.4242188,9.28125 Z M92.3359375,21 L88.1757813,21 L82.7265625,5.4140625 L87.0625,5.4140625 L90.1679688,16.3710938 L92.921875,6.8203125 C93.2343766,5.88280781 93.8593703,5.4140625 94.796875,5.4140625 L97.84375,5.4140625 L92.3359375,21 Z" id="Sigesov-Copy" fill="#419AD8"></path>
                </g>
            </g>
        </g>
    </g>
</svg>